<?xml version="1.0" encoding="iso-8859-1"?>
<!-- Uploaded to: SVG Repo, www.svgrepo.com, Generator: SVG Repo Mixer Tools -->
<svg version="1.1" id="Layer_1" xmlns="http://www.w3.org/2000/svg" xmlns:xlink="http://www.w3.org/1999/xlink" 
	 viewBox="0 0 512 512" xml:space="preserve">
<g transform="translate(1 1)">
	<path style="fill:#FECC00;" d="M198.364,58.733h-59.733v-38.4c0.853-6.827,6.827-12.8,14.507-12.8h33.28
		c6.827,0,12.8,5.973,11.947,12.8V58.733z"/>
	<path style="fill:#FFA800;" d="M212.018,7.533h-25.6c6.827,0,12.8,5.973,11.947,12.8v38.4h25.6v-38.4
		C224.818,13.507,218.844,7.533,212.018,7.533"/>
	<path style="fill:#FFFFFF;" d="M150.578,7.533h25.6c-6.827,0-12.8,5.973-11.947,12.8v38.4h-25.6v-38.4
		C137.778,13.507,143.751,7.533,150.578,7.533"/>
	<path style="fill:#FECC00;" d="M212.018,502.467h-84.48c-6.827,0-12.8-5.973-14.507-12.8v-38.4h110.933v38.4
		C224.818,496.493,218.844,502.467,212.018,502.467"/>
	<path style="fill:#FFA800;" d="M249.564,489.667v-38.4h-25.6v38.4c0.853,6.827-5.12,12.8-11.947,12.8h25.6
		C244.444,502.467,250.418,496.493,249.564,489.667"/>
	<path style="fill:#FFFFFF;" d="M113.031,489.667v-38.4h25.6v38.4c-0.853,6.827,5.12,12.8,11.947,12.8h-25.6
		C118.151,502.467,112.178,496.493,113.031,489.667"/>
	<g>
		<path style="fill:#FFE100;" d="M428.764,417.133c-33.28,0-59.733-26.453-59.733-59.733c0-14.507-11.093-25.6-25.6-25.6
			c-18.773,0-34.133-15.36-34.133-34.133c0-5.12,3.413-8.533,8.533-8.533c5.12,0,8.533,3.413,8.533,8.533
			c0,9.387,7.68,17.067,17.067,17.067c23.893,0,42.667,18.773,42.667,42.667c0,23.893,18.773,42.667,42.667,42.667
			s42.667-18.773,42.667-42.667c0-23.893-18.773-42.667-42.667-42.667c-5.12,0-8.533-3.413-8.533-8.533s3.413-8.533,8.533-8.533
			c33.28,0,59.733,26.453,59.733,59.733S462.044,417.133,428.764,417.133z"/>
		<path style="fill:#FFE100;" d="M303.324,451.267H33.671c-3.413,0-6.827-3.413-5.973-6.827l66.56-380.587
			c0-3.413,2.56-5.12,5.973-5.12h137.387c2.56,0,5.12,1.707,5.973,5.12l65.707,380.587
			C310.151,447.853,306.738,451.267,303.324,451.267"/>
	</g>
	<path style="fill:#FFA800;" d="M268.338,63.853c0-3.413-2.56-5.12-5.973-5.12h-25.6c2.56,0,5.12,1.707,5.973,5.12l66.56,380.587
		c0.853,3.413-2.56,6.827-5.973,6.827h25.6c3.413,0,6.827-3.413,5.973-6.827L268.338,63.853z"/>
	<path style="fill:#FFFFFF;" d="M94.258,63.853c0-3.413,2.56-5.12,5.973-5.12h25.6c-2.56,0-5.12,1.707-5.973,5.12L53.298,444.44
		c-0.853,3.413,2.56,6.827,5.973,6.827h-25.6c-3.413,0-6.827-3.413-5.973-6.827L94.258,63.853z"/>
	<path d="M420.231,417.133c-33.28,0-59.733-26.453-59.733-59.733c0-14.507-11.093-25.6-25.6-25.6
		c-18.773,0-34.133-15.36-34.133-34.133c0-5.12,3.413-8.533,8.533-8.533s8.533,3.413,8.533,8.533c0,9.387,7.68,17.067,17.067,17.067
		c23.893,0,42.667,18.773,42.667,42.667c0,23.893,18.773,42.667,42.667,42.667c23.893,0,42.667-18.773,42.667-42.667
		c0-23.893-18.773-42.667-42.667-42.667c-5.12,0-8.533-3.413-8.533-8.533s3.413-8.533,8.533-8.533
		c33.28,0,59.733,26.453,59.733,59.733S453.511,417.133,420.231,417.133z"/>
	
		<rect x="56.747" y="122.848" transform="matrix(-0.8705 0.4921 -0.4921 -0.8705 381.4906 162.3957)" width="225.272" height="17.066"/>
	
		<rect x="16.645" y="340.479" transform="matrix(-0.865 0.5018 -0.5018 -0.865 491.0493 565.9041)" width="305.498" height="17.067"/>
	
		<rect x="178.516" y="123.545" transform="matrix(-0.251 0.968 -0.968 -0.251 468.8183 122.4132)" width="17.067" height="238.083"/>
	<rect x="93.44" y="165.551" transform="matrix(-0.8762 0.482 -0.482 -0.8762 441.735 234.6876)" width="194.565" height="17.067"/>
	
		<rect x="164.204" y="195.194" transform="matrix(-0.8517 0.524 -0.524 -0.8517 531.6913 256.994)" width="130.558" height="17.066"/>
	
		<rect x="229.047" y="229.326" transform="matrix(-0.8682 0.4961 -0.4961 -0.8682 610.4888 313.597)" width="69.116" height="17.066"/>
	
		<rect x="141.057" y="197.28" transform="matrix(-0.2647 0.9643 -0.9643 -0.2647 465.832 218.5627)" width="17.066" height="179.195"/>
	
		<rect x="100.873" y="265.841" transform="matrix(-0.2577 0.9662 -0.9662 -0.2577 458.3602 311.8129)" width="17.066" height="132.263"/>
	
		<rect x="70.985" y="334.044" transform="matrix(-0.3511 0.9363 -0.9363 -0.3511 454.1698 425.8741)" width="17.066" height="72.531"/>
	<rect x="87.407" y="378.652" transform="matrix(-0.848 0.53 -0.53 -0.848 589.8758 605.1971)" width="241.494" height="17.067"/>
	
		<rect x="180.405" y="404.269" transform="matrix(-0.8574 0.5146 -0.5146 -0.8574 686.2063 635.485)" width="149.329" height="17.066"/>
	
		<rect x="79.73" y="84.259" transform="matrix(-0.8682 0.4961 -0.4961 -0.8682 323.3201 99.7227)" width="137.379" height="17.066"/>
	<path d="M328.924,459.8H36.231c-4.267,0-8.533-1.707-11.093-5.12c-2.56-3.413-4.267-7.68-3.413-11.947L87.431,62.147
		c1.707-6.827,7.68-11.947,14.507-11.947h160.427c6.827,0,12.8,5.12,14.507,11.947l66.56,380.587c0.853,4.267,0,8.533-3.413,11.947
		C337.458,458.093,333.191,459.8,328.924,459.8z M38.791,442.733h286.72L260.658,67.267h-156.16L38.791,442.733z"/>
	<path d="M232.498,67.267h-102.4V19.48C131.804,7.533,142.044-1,153.138-1h58.88c5.973,0,11.947,2.56,16.213,6.827
		c3.413,4.267,5.12,10.24,4.267,15.36V67.267z M147.164,50.2h68.267V19.48c0-0.853,0-1.707-0.853-1.707
		c0-0.853-1.707-1.707-2.56-1.707h-58.88c-2.56,0-5.12,2.56-5.973,5.12C147.164,21.187,147.164,50.2,147.164,50.2z"/>
	<path d="M237.618,511h-110.08c-11.093,0-20.48-8.533-23.04-20.48v-1.707v-46.08h153.6v46.08c0.853,5.12-0.853,11.093-4.267,15.36
		C249.564,508.44,243.591,511,237.618,511z M121.564,488.813c0.853,3.413,3.413,5.12,5.973,5.12h110.08
		c0.853,0,2.56-0.853,2.56-0.853c0.853-0.853,0.853-0.853,0.853-1.707v-1.707V459.8H121.564V488.813z"/>
</g>
</svg>